# xmcd
#
# Track frame offsets:
#	150
#	12184
#	31246
#	51034
#	68230
#	84347
#	95807
#	110116
#	124979
#	145038
#	162599
#	180941
#	198645
#	211651
#	227164
#	241647
#
# Disc length: 3424 seconds
#
# Revision: 1
# Processed by: cddbd v1.5.2PL0 Copyright (c) Steve Scherf et al.
# Submitted via: audiograbber 1.83.01
#
DISCID=d50d5e10
DTITLE=BossHoss, The - Internashville Urban Hymes
DYEAR=1900
DGENRE=Country
TTITLE0=Like Ice In The Sunshine
TTITLE1=Word Up
TTITLE2=Toxic
TTITLE3=Seven Nation Army
TTITLE4=Unbelievable
TTITLE5=Sabotage
TTITLE6=Remedy
TTITLE7=Loser
TTITLE8=Hot In Herre
TTITLE9=Hey Ya!
TTITLE10=Hey Joe
TTITLE11=Eyes Without A Face
TTITLE12=Drowned In Lake Daniels
TTITLE13=All The Things She Said
TTITLE14=A Little Les Conversation
TTITLE15=Yee Haw
EXTD=
EXTT0=
EXTT1=
EXTT2=
EXTT3=
EXTT4=
EXTT5=
EXTT6=
EXTT7=
EXTT8=
EXTT9=
EXTT10=
EXTT11=
EXTT12=
EXTT13=
EXTT14=
EXTT15=
PLAYORDER=
